<?xml version="1.0" encoding="utf-8"?>
<!-- Generator: Adobe Illustrator 16.0.0, SVG Export Plug-In . SVG Version: 6.00 Build 0)  -->
<!DOCTYPE svg PUBLIC "-//W3C//DTD SVG 1.1//EN" "http://www.w3.org/Graphics/SVG/1.1/DTD/svg11.dtd">
<svg version="1.1" id="Layer_1" xmlns="http://www.w3.org/2000/svg" xmlns:xlink="http://www.w3.org/1999/xlink" x="0px" y="0px"
	 width="595.281px" height="340.445px" viewBox="0 501.445 595.281 340.445" enable-background="new 0 501.445 595.281 340.445"
	 xml:space="preserve">
<g id="image" display="none">
	<g display="inline">
		<defs>
			<rect id="SVGID_1_" x="-0.08" y="176.445" width="595.361" height="584.47"/>
		</defs>
		<clipPath id="SVGID_2_">
			<use xlink:href="#SVGID_1_"  overflow="visible"/>
		</clipPath>
		<polygon clip-path="url(#SVGID_2_)" fill="#667BBB" points="-10.51,393.825 608.291,393.825 608.291,602.355 -14.24,602.355 		"/>
	</g>
	<g display="inline">
		<defs>
			<rect id="SVGID_3_" x="-0.08" y="176.445" width="595.361" height="584.47"/>
		</defs>
		<clipPath id="SVGID_4_">
			<use xlink:href="#SVGID_3_"  overflow="visible"/>
		</clipPath>
		<polygon clip-path="url(#SVGID_4_)" fill="#111628" points="-24.53,782.195 -17.47,562.565 27.71,559.205 66.53,547.735 
			106.76,556.685 149.82,556.685 171.71,570.685 224.65,567.855 252.18,556.685 291.35,555.506 309,566.095 323.82,566.095 
			333,573.145 359.82,573.145 378.179,587.975 487.589,587.975 495,571.735 525,566.796 534.179,555.506 563.121,555.506 
			600.41,535.915 608.291,614.095 608.291,782.796 		"/>
	</g>
	<g display="inline">
		<defs>
			<rect id="SVGID_5_" x="-0.08" y="176.445" width="595.361" height="584.47"/>
		</defs>
		<clipPath id="SVGID_6_">
			<use xlink:href="#SVGID_5_"  overflow="visible"/>
		</clipPath>
		<g clip-path="url(#SVGID_6_)">
			<g>
				<polygon fill="#3E518B" points="560.48,307.275 504.64,413.265 617.121,413.065 				"/>
				<polygon fill="#30457A" points="596.669,394.195 587.871,413.125 504.63,413.265 560.48,307.275 560.71,307.685 567.96,340.705 
					560.089,358.005 				"/>
			</g>
			<g>
				<polygon fill="#3E518B" points="17.47,264.715 -69.23,431.296 109.33,431.205 				"/>
				<polygon fill="#30457A" points="65.82,431.235 -69.22,431.296 17.47,264.715 9.05,319.055 37.76,343.175 32.02,374.175 				"/>
			</g>
			<g>
				<polygon fill="#3E518B" points="502.24,263.015 421.701,417.775 587.57,417.685 				"/>
				<polygon fill="#30457A" points="547.15,417.715 421.701,417.775 502.24,263.015 494.41,313.505 521.089,335.905 515.75,364.705 
									"/>
			</g>
			<g>
				<polygon fill="#3E518B" points="121.33,258.225 54.88,432.296 206.96,446.336 				"/>
				<polygon fill="#30457A" points="141.91,418.255 114.55,437.796 54.89,432.296 121.32,258.215 121.58,258.755 118.05,309.695 
					130.22,312.505 118.05,350.395 				"/>
			</g>
			<g>
				<polygon fill="#3E518B" points="422.4,240.595 551.009,425.445 295.27,421.035 				"/>
				<polygon fill="#30457A" points="459.111,335.655 411.24,422.885 306.179,405.555 422.4,240.595 422.669,240.985 
					434.169,277.775 420.05,295.655 				"/>
			</g>
			<g>
				<polygon fill="#3E518B" points="194.56,269.455 144.44,400.745 259.14,411.335 				"/>
				<polygon fill="#30457A" points="210.08,390.155 191.38,416.155 134.31,427.285 194.55,269.445 194.74,269.855 192.08,308.275 
					201.26,310.395 192.08,338.975 				"/>
			</g>
			<g>
				<polygon fill="#3E518B" points="290.6,190.605 179.46,404.155 415.941,417.775 				"/>
				<polygon fill="#30457A" points="358.58,414.195 179.46,404.155 290.6,190.605 279.8,260.265 316.611,291.185 309.25,330.925 
									"/>
			</g>
		</g>
	</g>
	<g display="inline">
		<defs>
			<rect id="SVGID_7_" x="-0.08" y="176.445" width="595.361" height="584.47"/>
		</defs>
		<clipPath id="SVGID_8_">
			<use xlink:href="#SVGID_7_"  overflow="visible"/>
		</clipPath>
		<polygon clip-path="url(#SVGID_8_)" fill="#30457A" points="498.441,499.845 501.259,493.265 518.201,489.495 521.031,494.676 
			525.621,495.735 525.621,499.845 		"/>
	</g>
	<g display="inline">
		<defs>
			<rect id="SVGID_9_" x="-0.08" y="176.445" width="595.361" height="584.47"/>
		</defs>
		<clipPath id="SVGID_10_">
			<use xlink:href="#SVGID_9_"  overflow="visible"/>
		</clipPath>
		<polygon clip-path="url(#SVGID_10_)" fill="#30457A" points="319.759,542.685 316.941,536.095 300,532.325 297.18,537.506 
			292.59,538.565 292.59,542.685 		"/>
	</g>
	<g display="inline">
		<defs>
			<rect id="SVGID_11_" x="-0.08" y="176.445" width="595.361" height="584.47"/>
		</defs>
		<clipPath id="SVGID_12_">
			<use xlink:href="#SVGID_11_"  overflow="visible"/>
		</clipPath>
		<g clip-path="url(#SVGID_12_)">
			<g>
				<polygon fill="#1F2A48" points="516.441,371.835 499.5,432.195 534.441,432.195 				"/>
				<polygon fill="#1F2A48" points="376.679,374.725 359.73,435.075 394.679,435.075 				"/>
				<polygon fill="#1F2A48" points="453.71,383.095 436.759,443.445 471.71,443.445 				"/>
				<polygon fill="#1F2A48" points="406.759,381.505 389.82,441.855 424.759,441.855 				"/>
				<polygon fill="#1F2A48" points="183.79,373.735 166.85,434.095 201.79,434.095 				"/>
				<polygon fill="#1F2A48" points="173.38,394.035 156.44,454.385 191.38,454.385 				"/>
				<polygon fill="#1F2A48" points="164.91,392.705 147.97,453.065 182.91,453.065 				"/>
				<polygon fill="#1F2A48" points="150.44,389.205 133.5,449.565 168.44,449.565 				"/>
				<polygon fill="#1F2A48" points="130.39,392.385 113.45,452.745 148.39,452.745 				"/>
				<polygon fill="#1F2A48" points="490.679,395.665 473.73,456.015 508.679,456.015 				"/>
				<polygon fill="#1F2A48" points="389.291,387.595 372.349,447.945 407.291,447.945 				"/>
				<polygon fill="#1F2A48" points="356.82,392.385 339.88,452.745 374.82,452.745 				"/>
				<polygon fill="#1F2A48" points="421.169,394.685 404.22,455.035 439.169,455.035 				"/>
				<polygon fill="#1F2A48" points="559.849,363.015 545.929,431.015 572.73,429.216 				"/>
				<polygon fill="#1F2A48" points="534.441,374.305 522.089,434.665 546.791,434.665 				"/>
				<polygon fill="#1F2A48" points="547.5,379.955 530.91,440.305 563.73,440.305 				"/>
				<polygon fill="#1F2A48" points="589.32,368.855 572.73,429.216 605.56,429.216 				"/>
				<polygon fill="#1F2A48" points="480.111,392.385 463.521,452.745 496.349,452.745 				"/>
				<polygon fill="#1F2A48" points="576.441,375.955 568.32,436.315 589.15,436.315 				"/>
				<polygon fill="#1F2A48" points="467.23,379.955 459.111,440.305 479.929,440.305 				"/>
				<polygon fill="#1F2A48" points="569.91,378.785 561.791,439.135 582.621,439.135 				"/>
				<polygon fill="#1F2A48" points="462.349,394.685 454.24,455.035 475.06,455.035 				"/>
				<polygon fill="#1F2A48" points="440.23,374.725 432.111,435.075 452.929,435.075 				"/>
				<polygon fill="#1F2A48" points="499.32,397.485 491.201,457.845 512.031,457.845 				"/>
				<polygon fill="#1F2A48" points="364.06,385.975 355.941,446.336 376.759,446.336 				"/>
				<polygon fill="#1F2A48" points="429.81,387.595 421.701,447.955 442.521,447.955 				"/>
				<polygon fill="#1F2A48" points="337.41,377.475 329.291,437.836 350.121,437.836 				"/>
				<polygon fill="#1F2A48" points="344.65,376.405 336.531,436.756 357.349,436.756 				"/>
			</g>
		</g>
	</g>
	<g display="inline">
		<defs>
			<rect id="SVGID_13_" x="-0.08" y="176.445" width="595.361" height="584.47"/>
		</defs>
		<clipPath id="SVGID_14_">
			<use xlink:href="#SVGID_13_"  overflow="visible"/>
		</clipPath>
		<g clip-path="url(#SVGID_14_)">
			<polygon fill="#1F2A48" points="258.09,360.675 235.85,421.035 271.5,421.035 			"/>
			<polygon fill="#1F2A48" points="292.17,364.035 275.23,424.385 310.169,424.385 			"/>
			<polygon fill="#1F2A48" points="309.64,362.215 292.7,422.565 327.64,422.565 			"/>
			<polygon fill="#1F2A48" points="327.111,382.645 310.169,443.006 345.111,443.006 			"/>
			<polygon fill="#1F2A48" points="276.09,373.735 259.14,434.095 294.09,434.095 			"/>
			<polygon fill="#1F2A48" points="212.91,351.325 199.5,411.675 225.97,411.675 			"/>
			<polygon fill="#1F2A48" points="196.32,360.675 182.91,421.035 209.38,421.035 			"/>
			<polygon fill="#1F2A48" points="204.79,370.735 191.38,431.095 217.85,431.095 			"/>
			<polygon fill="#1F2A48" points="224.91,365.095 211.5,425.445 237.97,425.445 			"/>
			<polygon fill="#1F2A48" points="238.14,360.675 229.5,421.035 245.38,421.035 			"/>
			<polygon fill="#1F2A48" points="234.09,365.095 225.44,425.445 241.32,425.445 			"/>
			<polygon fill="#1F2A48" points="246.09,373.735 237.44,434.095 253.32,434.095 			"/>
		</g>
	</g>
	<g display="inline">
		<defs>
			<rect id="SVGID_15_" x="-0.08" y="176.445" width="595.361" height="584.47"/>
		</defs>
		<clipPath id="SVGID_16_">
			<use xlink:href="#SVGID_15_"  overflow="visible"/>
		</clipPath>
		<g clip-path="url(#SVGID_16_)">
			<polygon fill="#1F2A48" points="66.27,354.065 44.03,414.415 87.24,431.025 			"/>
			<polygon fill="#1F2A48" points="92.74,371.005 75.8,431.355 110.74,431.355 			"/>
			<polygon fill="#1F2A48" points="141.38,385.975 124.44,446.336 159.38,446.336 			"/>
			<polygon fill="#1F2A48" points="110.21,369.175 93.27,429.535 128.21,429.535 			"/>
			<polygon fill="#1F2A48" points="81.8,382.475 64.86,442.825 99.8,442.825 			"/>
			<polygon fill="#1F2A48" points="21.45,343.115 8.03,403.475 34.5,403.475 			"/>
			<polygon fill="#1F2A48" points="-5.02,335.355 -18.44,395.705 8.03,395.705 			"/>
			<polygon fill="#1F2A48" points="4.86,352.475 -8.55,412.825 17.92,412.825 			"/>
			<polygon fill="#1F2A48" points="13.33,362.535 -0.08,422.885 26.39,422.885 			"/>
			<polygon fill="#1F2A48" points="33.45,356.885 20.03,417.235 46.5,417.235 			"/>
			<polygon fill="#1F2A48" points="46.68,352.475 38.03,412.825 53.92,412.825 			"/>
			<polygon fill="#1F2A48" points="42.62,356.885 33.98,417.235 49.86,417.235 			"/>
			<polygon fill="#1F2A48" points="54.62,365.535 45.98,425.885 61.86,425.885 			"/>
		</g>
	</g>
	<g display="inline">
		<defs>
			<rect id="SVGID_17_" x="-0.08" y="176.445" width="595.361" height="584.47"/>
		</defs>
		<clipPath id="SVGID_18_">
			<use xlink:href="#SVGID_17_"  overflow="visible"/>
		</clipPath>
		<polygon clip-path="url(#SVGID_18_)" fill="#30457A" points="448.291,535.915 452.88,544.035 434.71,544.035 439.82,538.035 
			445.291,537.506 		"/>
	</g>
	<g display="inline">
		<defs>
			<rect id="SVGID_19_" x="-0.08" y="176.445" width="595.361" height="584.47"/>
		</defs>
		<clipPath id="SVGID_20_">
			<use xlink:href="#SVGID_19_"  overflow="visible"/>
		</clipPath>
		<polygon clip-path="url(#SVGID_20_)" fill="#30457A" points="366.531,501.445 348.179,501.445 352.24,494.745 361.589,494.745 		
			"/>
	</g>
	<g display="inline">
		<defs>
			<rect id="SVGID_21_" x="-0.08" y="176.445" width="595.361" height="584.47"/>
		</defs>
		<clipPath id="SVGID_22_">
			<use xlink:href="#SVGID_21_"  overflow="visible"/>
		</clipPath>
		<polygon clip-path="url(#SVGID_22_)" fill="#1D2441" points="262.53,464.506 262.58,464.135 -47.65,451.205 -49.37,381.735 
			-28.19,388.325 -13.02,390.435 4.28,401.265 21.93,401.265 44.87,408.085 69.93,419.025 154.76,421.265 179.34,411.615 
			209.34,408.085 270.01,416.345 299.201,413.915 320.41,418.155 333.589,425.385 354.08,427.915 366.4,431.506 392.55,440.205 
			438.429,439.265 472.759,435.855 506.531,426.915 542.9,429.086 575.72,422.565 602.83,424.285 608.291,467.975 		"/>
	</g>
	<g display="inline">
		<defs>
			<rect id="SVGID_23_" x="-0.08" y="176.445" width="595.361" height="584.47"/>
		</defs>
		<clipPath id="SVGID_24_">
			<use xlink:href="#SVGID_23_"  overflow="visible"/>
		</clipPath>
		<g clip-path="url(#SVGID_24_)">
			<polygon fill="#29365D" points="371.82,429.216 355.941,464.506 306.179,464.506 324.98,429.216 			"/>
			<polygon fill="#29365D" points="371.82,464.506 371.82,429.216 389.82,464.506 			"/>
			<polygon fill="#222B4A" points="355.941,464.506 371.82,464.506 371.82,429.216 			"/>
			<polygon fill="#222B4A" points="357.349,433.805 347.82,454.275 322.06,454.275 331.941,433.805 			"/>
		</g>
	</g>
	<g display="inline">
		<defs>
			<rect id="SVGID_25_" x="-0.08" y="176.445" width="595.361" height="584.47"/>
		</defs>
		<clipPath id="SVGID_26_">
			<use xlink:href="#SVGID_25_"  overflow="visible"/>
		</clipPath>
		<polygon clip-path="url(#SVGID_26_)" fill="#111628" points="309.041,566.095 309,566.095 291.35,555.506 		"/>
	</g>
	<g display="inline">
		<defs>
			<rect id="SVGID_27_" x="-0.08" y="176.445" width="595.361" height="584.47"/>
		</defs>
		<clipPath id="SVGID_28_">
			<use xlink:href="#SVGID_27_"  overflow="visible"/>
		</clipPath>
		<polygon clip-path="url(#SVGID_28_)" fill="#19203B" points="604.88,469.915 586.531,469.915 569.82,475.035 524.291,475.035 
			491.47,469.915 217.09,469.915 204.65,473.625 158.76,474.325 123.68,469.915 56.61,469.915 35.94,474.565 6.18,477.855 
			-50.65,478.915 -50.65,442.565 33.71,429.205 115.94,424.205 198.53,438.035 214.75,444.615 228.53,442.735 252.88,445.565 
			258.18,450.855 273.35,451.915 278.65,458.625 305.47,463.915 401.47,463.915 416.291,455.445 439.589,455.445 508.06,432.506 
			522.531,432.506 547,437.625 601.589,433.796 		"/>
	</g>
</g>
<path display="none" fill="#111628" d="M27.81,475.464L0,477.97L27.81,475.464z"/>
<g>
	<polygon id="onderkant" fill="#111628" points="1.395,642.241 29.15,640.18 68.033,628.711 108.328,637.661 151.458,637.661 
		173.383,651.661 226.409,648.831 253.984,637.661 293.218,636.481 310.896,647.071 325.74,647.071 334.935,654.121 
		361.798,654.121 380.187,668.951 489.775,668.951 497.197,652.711 527.246,647.771 536.441,636.481 565.429,636.481 597,620.921 
		597.64,841.89 1.315,841.89 	"/>
	<polygon id="water" fill="#667BBB" points="1.36,559.424 36.503,555.91 57.968,550.89 83.83,550.89 125.035,550.89 
		160.114,555.562 206.001,554.82 218.441,550.89 492.81,550.89 525.63,556.314 571.156,556.314 587.867,550.89 596.617,550.89 
		596.644,624.191 564.457,641.556 535.517,641.556 526.478,653.645 496.339,658.748 488.929,675.951 380.171,675.951 
		361.783,660.242 334.921,660.242 325.726,652.774 310.882,652.774 293.206,641.556 253.268,643.109 225.992,654.661 
		173.376,657.635 151.452,642.805 108.324,642.805 68.03,633.325 29.149,645.474 1.395,647.657 	"/>
	<polygon id="bergje" fill="#19203B" points="0,560.424 35.223,556.91 56.737,551.89 125.191,552.054 159.117,556.562 
		205.109,555.82 217.577,551.89 492.574,551.89 525.468,557.314 571.121,557.01 587.451,552.018 596.617,551.89 596.617,516.216 
		548.25,519.6 523.724,514.481 509.22,514.481 440.593,537.421 417.242,537.421 402.388,545.89 306.167,545.89 279.724,540.686 
		273.975,533.89 258.77,532.831 253.458,527.541 229.556,524.769 215.563,526.547 198.984,520.01 117.15,506.339 93.596,507.552 
		66.902,509.172 36.752,511.001 0.519,516.437 	"/>
</g>
</svg>
